<svg xmlns="http://www.w3.org/2000/svg" viewBox="0 0 200 200">
  <!-- Definitions for gradients -->
  <defs>
    <linearGradient id="deep-blue-gradient" x1="0%" y1="0%" x2="100%" y2="100%">
      <stop offset="0%" stop-color="#1E3A8A" />
      <stop offset="100%" stop-color="#1E40AF" />
    </linearGradient>
    <linearGradient id="bright-blue-gradient" x1="0%" y1="0%" x2="100%" y2="100%">
      <stop offset="0%" stop-color="#3B82F6" />
      <stop offset="100%" stop-color="#2563EB" />
    </linearGradient>
    <filter id="glow" x="-20%" y="-20%" width="140%" height="140%">
      <feGaussianBlur stdDeviation="3" result="blur" />
      <feComposite in="SourceGraphic" in2="blur" operator="over" />
    </filter>
  </defs>
  
  <!-- Base shape - nested squares with rounded corners for uniqueness -->
  <rect x="20" y="20" width="160" height="160" rx="35" ry="35" fill="url(#deep-blue-gradient)" />
  
  <!-- Distinctive central pattern - orbital rings -->
  <ellipse cx="100" cy="100" rx="65" ry="30" fill="none" stroke="#FFFFFF" stroke-width="3" transform="rotate(45 100 100)" />
  <ellipse cx="100" cy="100" rx="65" ry="30" fill="none" stroke="#FFFFFF" stroke-width="3" transform="rotate(135 100 100)" />
  
  <!-- Unique network pattern - connection paths -->
  <path d="M100,55 C120,70 130,85 130,100 C130,115 120,130 100,145" fill="none" stroke="url(#bright-blue-gradient)" stroke-width="6" stroke-linecap="round" filter="url(#glow)" />
  <path d="M100,55 C80,70 70,85 70,100 C70,115 80,130 100,145" fill="none" stroke="url(#bright-blue-gradient)" stroke-width="6" stroke-linecap="round" filter="url(#glow)" />
  
  <!-- Central element - the testing hub -->
  <circle cx="100" cy="100" r="22" fill="#FFFFFF" />
  <circle cx="100" cy="100" r="15" fill="url(#deep-blue-gradient)" />
  
  <!-- Test nodes -->
  <circle cx="100" cy="55" r="8" fill="#FFFFFF" />
  <circle cx="100" cy="145" r="8" fill="#FFFFFF" />
  <circle cx="55" cy="100" r="8" fill="#FFFFFF" />
  <circle cx="145" cy="100" r="8" fill="#FFFFFF" />
  
  <!-- Dynamic connection elements -->
  <circle cx="130" cy="70" r="6" fill="#60A5FA" />
  <circle cx="130" cy="130" r="6" fill="#60A5FA" />
  <circle cx="70" cy="70" r="6" fill="#60A5FA" />
  <circle cx="70" cy="130" r="6" fill="#60A5FA" />
</svg>
